<svg width="21" height="20" viewBox="0 0 21 20" fill="none" xmlns="http://www.w3.org/2000/svg">
<path d="M10.5002 5.41668C10.5002 2.88537 8.44814 0.833344 5.91683 0.833344C3.38552 0.833344 1.3335 2.88537 1.3335 5.41668C1.3335 7.94799 3.38552 10 5.91683 10C8.44814 10 10.5002 7.94799 10.5002 5.41668ZM6.33404 5.83335L6.33442 7.91961C6.33442 8.14973 6.14787 8.33626 5.91775 8.33626C5.68764 8.33626 5.50109 8.14973 5.50109 7.91961L5.5007 5.83335H3.41357C3.18345 5.83335 2.9969 5.6468 2.9969 5.41669C2.9969 5.18657 3.18345 5.00002 3.41357 5.00002H5.50055L5.50016 2.91607C5.50016 2.68595 5.68671 2.4994 5.91683 2.4994C6.14695 2.4994 6.3335 2.68595 6.3335 2.91607L6.33388 5.00002H8.41934C8.64945 5.00002 8.836 5.18657 8.836 5.41669C8.836 5.6468 8.64945 5.83335 8.41934 5.83335H6.33404ZM15.2918 3.75001H11.0722C10.9287 3.30545 10.7291 2.88602 10.482 2.50001H15.2918C16.7876 2.50001 18.0002 3.71257 18.0002 5.20834V10.9406C18.0002 11.4378 17.8026 11.9148 17.451 12.2664L12.7666 16.9508C12.4149 17.3024 11.938 17.5 11.4407 17.5H5.7085C4.21272 17.5 3.00016 16.2874 3.00016 14.7917V9.98184C3.38617 10.2289 3.8056 10.4285 4.25016 10.5721V14.7917C4.25016 15.5971 4.90308 16.25 5.7085 16.25H11.3335V13.5417C11.3335 12.0975 12.4639 10.9173 13.8882 10.8376L14.0418 10.8333H16.7502V5.20834C16.7502 4.40293 16.0972 3.75001 15.2918 3.75001ZM15.866 12.0833H14.0418C13.2767 12.0833 12.6492 12.6726 12.5883 13.4221L12.5835 13.5417V15.3658L15.866 12.0833Z" fill="white"/>
</svg>
